<?xml version="1.0" standalone="no"?>
<!DOCTYPE svg PUBLIC "-//W3C//DTD SVG 20010904//EN"
 "http://www.w3.org/TR/2001/REC-SVG-20010904/DTD/svg10.dtd">
<svg version="1.0" xmlns="http://www.w3.org/2000/svg"
 width="497.000000pt" height="663.000000pt" viewBox="0 0 497.000000 663.000000"
 preserveAspectRatio="xMidYMid meet">

<g transform="translate(0.000000,663.000000) scale(0.100000,-0.100000)"
fill="#000000" stroke="none">
<path d="M900 6067 c-30 -16 -51 -37 -67 -67 l-23 -43 0 -2857 0 -2857 23 -43
c16 -30 37 -51 67 -67 l43 -23 1428 0 c984 0 1436 3 1456 11 38 14 83 57 99
96 12 27 14 369 14 2118 l0 2085 255 2 255 3 -255 310 -254 310 -1 452 c0 294
-4 462 -11 480 -14 38 -57 83 -96 99 -27 12 -270 14 -1461 14 l-1429 0 -43
-23z m2933 -1 c36 -14 87 -69 87 -92 0 -12 -82 -14 -555 -14 l-555 0 0 -380 0
-380 560 0 560 0 -2 -2489 -3 -2490 -21 -27 c-11 -15 -33 -37 -48 -48 -27 -21
-31 -21 -1468 -24 -1440 -2 -1441 -2 -1484 19 -31 15 -48 32 -63 63 l-21 42 0
2854 0 2854 21 42 c14 30 32 48 62 63 42 21 44 21 1470 21 1183 0 1433 -2
1460 -14z m97 -486 l0 -370 -555 0 -555 0 0 370 0 370 555 0 555 0 0 -370z
m256 -845 c127 -154 233 -286 238 -292 6 -10 -44 -13 -233 -13 l-241 0 0 297
c0 163 2 294 3 292 2 -2 107 -130 233 -284z"/>
<path d="M970 5750 l0 -120 130 0 130 0 0 120 0 120 -130 0 -130 0 0 -120z
m250 0 l0 -110 -120 0 -120 0 0 110 0 110 120 0 120 0 0 -110z"/>
<path d="M1390 5750 l0 -120 130 0 130 0 0 120 0 120 -130 0 -130 0 0 -120z
m250 0 l0 -110 -120 0 -120 0 0 110 0 110 120 0 120 0 0 -110z"/>
<path d="M1790 5750 l0 -120 130 0 130 0 0 120 0 120 -130 0 -130 0 0 -120z
m250 0 l0 -110 -120 0 -120 0 0 110 0 110 120 0 120 0 0 -110z"/>
<path d="M980 5390 l0 -120 130 0 130 0 0 120 0 120 -130 0 -130 0 0 -120z
m250 0 l0 -110 -120 0 -120 0 0 110 0 110 120 0 120 0 0 -110z"/>
<path d="M1400 5390 l0 -120 130 0 130 0 0 120 0 120 -130 0 -130 0 0 -120z
m250 0 l0 -110 -120 0 -120 0 0 110 0 110 120 0 120 0 0 -110z"/>
<path d="M1800 5390 l0 -120 130 0 130 0 0 120 0 120 -130 0 -130 0 0 -120z
m250 0 l0 -110 -120 0 -120 0 0 110 0 110 120 0 120 0 0 -110z"/>
<path d="M980 4980 l0 -120 130 0 130 0 0 120 0 120 -130 0 -130 0 0 -120z
m250 0 l0 -110 -120 0 -120 0 0 110 0 110 120 0 120 0 0 -110z"/>
<path d="M1400 4980 l0 -120 130 0 130 0 0 120 0 120 -130 0 -130 0 0 -120z
m250 0 l0 -110 -120 0 -120 0 0 110 0 110 120 0 120 0 0 -110z"/>
<path d="M1800 4980 l0 -120 130 0 130 0 0 120 0 120 -130 0 -130 0 0 -120z
m250 0 l0 -110 -120 0 -120 0 0 110 0 110 120 0 120 0 0 -110z"/>
<path d="M980 4610 l0 -120 130 0 130 0 0 120 0 120 -130 0 -130 0 0 -120z
m250 0 l0 -110 -120 0 -120 0 0 110 0 110 120 0 120 0 0 -110z"/>
<path d="M1400 4610 l0 -120 130 0 130 0 0 120 0 120 -130 0 -130 0 0 -120z
m250 0 l0 -110 -120 0 -120 0 0 110 0 110 120 0 120 0 0 -110z"/>
<path d="M1800 4610 l0 -120 130 0 130 0 0 120 0 120 -130 0 -130 0 0 -120z
m250 0 l0 -110 -120 0 -120 0 0 110 0 110 120 0 120 0 0 -110z"/>
<path d="M2700 4240 l0 -120 130 0 130 0 0 120 0 120 -130 0 -130 0 0 -120z
m250 0 l0 -110 -120 0 -120 0 0 110 0 110 120 0 120 0 0 -110z"/>
<path d="M3120 4240 l0 -120 130 0 130 0 0 120 0 120 -130 0 -130 0 0 -120z
m250 0 l0 -110 -120 0 -120 0 0 110 0 110 120 0 120 0 0 -110z"/>
<path d="M3520 4240 l0 -120 130 0 130 0 0 120 0 120 -130 0 -130 0 0 -120z
m250 0 l0 -110 -120 0 -120 0 0 110 0 110 120 0 120 0 0 -110z"/>
<path d="M980 4200 l0 -120 130 0 130 0 0 120 0 120 -130 0 -130 0 0 -120z
m250 0 l0 -110 -120 0 -120 0 0 110 0 110 120 0 120 0 0 -110z"/>
<path d="M1400 4200 l0 -120 130 0 130 0 0 120 0 120 -130 0 -130 0 0 -120z
m250 0 l0 -110 -120 0 -120 0 0 110 0 110 120 0 120 0 0 -110z"/>
<path d="M1800 4200 l0 -120 130 0 130 0 0 120 0 120 -130 0 -130 0 0 -120z
m250 0 l0 -110 -120 0 -120 0 0 110 0 110 120 0 120 0 0 -110z"/>
<path d="M2700 3830 l0 -120 130 0 130 0 0 120 0 120 -130 0 -130 0 0 -120z
m250 0 l0 -110 -120 0 -120 0 0 110 0 110 120 0 120 0 0 -110z"/>
<path d="M3120 3830 l0 -120 130 0 130 0 0 120 0 120 -130 0 -130 0 0 -120z
m250 0 l0 -110 -120 0 -120 0 0 110 0 110 120 0 120 0 0 -110z"/>
<path d="M3520 3830 l0 -120 130 0 130 0 0 120 0 120 -130 0 -130 0 0 -120z
m250 0 l0 -110 -120 0 -120 0 0 110 0 110 120 0 120 0 0 -110z"/>
<path d="M990 3810 l0 -120 130 0 130 0 0 120 0 120 -130 0 -130 0 0 -120z
m250 0 l0 -110 -120 0 -120 0 0 110 0 110 120 0 120 0 0 -110z"/>
<path d="M1410 3810 l0 -120 130 0 130 0 0 120 0 120 -130 0 -130 0 0 -120z
m250 0 l0 -110 -120 0 -120 0 0 110 0 110 120 0 120 0 0 -110z"/>
<path d="M1810 3810 l0 -120 130 0 130 0 0 120 0 120 -130 0 -130 0 0 -120z
m250 0 l0 -110 -120 0 -120 0 0 110 0 110 120 0 120 0 0 -110z"/>
<path d="M2700 3460 l0 -120 130 0 130 0 0 120 0 120 -130 0 -130 0 0 -120z
m250 0 l0 -110 -120 0 -120 0 0 110 0 110 120 0 120 0 0 -110z"/>
<path d="M3120 3460 l0 -120 130 0 130 0 0 120 0 120 -130 0 -130 0 0 -120z
m250 0 l0 -110 -120 0 -120 0 0 110 0 110 120 0 120 0 0 -110z"/>
<path d="M3520 3460 l0 -120 130 0 130 0 0 120 0 120 -130 0 -130 0 0 -120z
m250 0 l0 -110 -120 0 -120 0 0 110 0 110 120 0 120 0 0 -110z"/>
<path d="M990 3400 l0 -120 130 0 130 0 0 120 0 120 -130 0 -130 0 0 -120z
m250 0 l0 -110 -120 0 -120 0 0 110 0 110 120 0 120 0 0 -110z"/>
<path d="M1410 3400 l0 -120 130 0 130 0 0 120 0 120 -130 0 -130 0 0 -120z
m250 0 l0 -110 -120 0 -120 0 0 110 0 110 120 0 120 0 0 -110z"/>
<path d="M1810 3400 l0 -120 130 0 130 0 0 120 0 120 -130 0 -130 0 0 -120z
m250 0 l0 -110 -120 0 -120 0 0 110 0 110 120 0 120 0 0 -110z"/>
<path d="M2700 3050 l0 -120 130 0 130 0 0 120 0 120 -130 0 -130 0 0 -120z
m250 0 l0 -110 -120 0 -120 0 0 110 0 110 120 0 120 0 0 -110z"/>
<path d="M3120 3050 l0 -120 130 0 130 0 0 120 0 120 -130 0 -130 0 0 -120z
m250 0 l0 -110 -120 0 -120 0 0 110 0 110 120 0 120 0 0 -110z"/>
<path d="M3520 3050 l0 -120 130 0 130 0 0 120 0 120 -130 0 -130 0 0 -120z
m250 0 l0 -110 -120 0 -120 0 0 110 0 110 120 0 120 0 0 -110z"/>
<path d="M980 3010 l0 -120 130 0 130 0 0 120 0 120 -130 0 -130 0 0 -120z
m250 0 l0 -110 -120 0 -120 0 0 110 0 110 120 0 120 0 0 -110z"/>
<path d="M1400 3010 l0 -120 130 0 130 0 0 120 0 120 -130 0 -130 0 0 -120z
m250 0 l0 -110 -120 0 -120 0 0 110 0 110 120 0 120 0 0 -110z"/>
<path d="M1800 3010 l0 -120 130 0 130 0 0 120 0 120 -130 0 -130 0 0 -120z
m250 0 l0 -110 -120 0 -120 0 0 110 0 110 120 0 120 0 0 -110z"/>
<path d="M2710 2660 l0 -120 130 0 130 0 0 120 0 120 -130 0 -130 0 0 -120z
m250 0 l0 -110 -120 0 -120 0 0 110 0 110 120 0 120 0 0 -110z"/>
<path d="M3130 2660 l0 -120 130 0 130 0 0 120 0 120 -130 0 -130 0 0 -120z
m250 0 l0 -110 -120 0 -120 0 0 110 0 110 120 0 120 0 0 -110z"/>
<path d="M3530 2660 l0 -120 130 0 130 0 0 120 0 120 -130 0 -130 0 0 -120z
m250 0 l0 -110 -120 0 -120 0 0 110 0 110 120 0 120 0 0 -110z"/>
<path d="M980 2600 l0 -120 130 0 130 0 0 120 0 120 -130 0 -130 0 0 -120z
m250 0 l0 -110 -120 0 -120 0 0 110 0 110 120 0 120 0 0 -110z"/>
<path d="M1400 2600 l0 -120 130 0 130 0 0 120 0 120 -130 0 -130 0 0 -120z
m250 0 l0 -110 -120 0 -120 0 0 110 0 110 120 0 120 0 0 -110z"/>
<path d="M1800 2600 l0 -120 130 0 130 0 0 120 0 120 -130 0 -130 0 0 -120z
m250 0 l0 -110 -120 0 -120 0 0 110 0 110 120 0 120 0 0 -110z"/>
<path d="M2710 2250 l0 -120 130 0 130 0 0 120 0 120 -130 0 -130 0 0 -120z
m250 0 l0 -110 -120 0 -120 0 0 110 0 110 120 0 120 0 0 -110z"/>
<path d="M3130 2250 l0 -120 130 0 130 0 0 120 0 120 -130 0 -130 0 0 -120z
m250 0 l0 -110 -120 0 -120 0 0 110 0 110 120 0 120 0 0 -110z"/>
<path d="M3530 2250 l0 -120 130 0 130 0 0 120 0 120 -130 0 -130 0 0 -120z
m250 0 l0 -110 -120 0 -120 0 0 110 0 110 120 0 120 0 0 -110z"/>
<path d="M970 2210 l0 -120 130 0 130 0 0 120 0 120 -130 0 -130 0 0 -120z
m250 0 l0 -110 -120 0 -120 0 0 110 0 110 120 0 120 0 0 -110z"/>
<path d="M1390 2210 l0 -120 130 0 130 0 0 120 0 120 -130 0 -130 0 0 -120z
m250 0 l0 -110 -120 0 -120 0 0 110 0 110 120 0 120 0 0 -110z"/>
<path d="M1790 2210 l0 -120 130 0 130 0 0 120 0 120 -130 0 -130 0 0 -120z
m250 0 l0 -110 -120 0 -120 0 0 110 0 110 120 0 120 0 0 -110z"/>
<path d="M2700 1860 l0 -120 130 0 130 0 0 120 0 120 -130 0 -130 0 0 -120z
m250 0 l0 -110 -120 0 -120 0 0 110 0 110 120 0 120 0 0 -110z"/>
<path d="M3120 1860 l0 -120 130 0 130 0 0 120 0 120 -130 0 -130 0 0 -120z
m250 0 l0 -110 -120 0 -120 0 0 110 0 110 120 0 120 0 0 -110z"/>
<path d="M3520 1860 l0 -120 130 0 130 0 0 120 0 120 -130 0 -130 0 0 -120z
m250 0 l0 -110 -120 0 -120 0 0 110 0 110 120 0 120 0 0 -110z"/>
<path d="M970 1800 l0 -120 130 0 130 0 0 120 0 120 -130 0 -130 0 0 -120z
m250 0 l0 -110 -120 0 -120 0 0 110 0 110 120 0 120 0 0 -110z"/>
<path d="M1390 1800 l0 -120 130 0 130 0 0 120 0 120 -130 0 -130 0 0 -120z
m250 0 l0 -110 -120 0 -120 0 0 110 0 110 120 0 120 0 0 -110z"/>
<path d="M1790 1800 l0 -120 130 0 130 0 0 120 0 120 -130 0 -130 0 0 -120z
m250 0 l0 -110 -120 0 -120 0 0 110 0 110 120 0 120 0 0 -110z"/>
<path d="M2700 1450 l0 -120 130 0 130 0 0 120 0 120 -130 0 -130 0 0 -120z
m250 0 l0 -110 -120 0 -120 0 0 110 0 110 120 0 120 0 0 -110z"/>
<path d="M3120 1450 l0 -120 130 0 130 0 0 120 0 120 -130 0 -130 0 0 -120z
m250 0 l0 -110 -120 0 -120 0 0 110 0 110 120 0 120 0 0 -110z"/>
<path d="M3520 1450 l0 -120 130 0 130 0 0 120 0 120 -130 0 -130 0 0 -120z
m250 0 l0 -110 -120 0 -120 0 0 110 0 110 120 0 120 0 0 -110z"/>
<path d="M970 1440 l0 -120 130 0 130 0 0 120 0 120 -130 0 -130 0 0 -120z
m250 0 l0 -110 -120 0 -120 0 0 110 0 110 120 0 120 0 0 -110z"/>
<path d="M1390 1440 l0 -120 130 0 130 0 0 120 0 120 -130 0 -130 0 0 -120z
m250 0 l0 -110 -120 0 -120 0 0 110 0 110 120 0 120 0 0 -110z"/>
<path d="M1790 1440 l0 -120 130 0 130 0 0 120 0 120 -130 0 -130 0 0 -120z
m250 0 l0 -110 -120 0 -120 0 0 110 0 110 120 0 120 0 0 -110z"/>
<path d="M970 1030 l0 -120 130 0 130 0 0 120 0 120 -130 0 -130 0 0 -120z
m250 0 l0 -110 -120 0 -120 0 0 110 0 110 120 0 120 0 0 -110z"/>
<path d="M1390 1030 l0 -120 130 0 130 0 0 120 0 120 -130 0 -130 0 0 -120z
m250 0 l0 -110 -120 0 -120 0 0 110 0 110 120 0 120 0 0 -110z"/>
<path d="M1790 1030 l0 -120 130 0 130 0 0 120 0 120 -130 0 -130 0 0 -120z
m250 0 l0 -110 -120 0 -120 0 0 110 0 110 120 0 120 0 0 -110z"/>
<path d="M2710 1030 l0 -120 130 0 130 0 0 120 0 120 -130 0 -130 0 0 -120z
m250 0 l0 -110 -120 0 -120 0 0 110 0 110 120 0 120 0 0 -110z"/>
<path d="M3130 1030 l0 -120 130 0 130 0 0 120 0 120 -130 0 -130 0 0 -120z
m250 0 l0 -110 -120 0 -120 0 0 110 0 110 120 0 120 0 0 -110z"/>
<path d="M3530 1030 l0 -120 130 0 130 0 0 120 0 120 -130 0 -130 0 0 -120z
m250 0 l0 -110 -120 0 -120 0 0 110 0 110 120 0 120 0 0 -110z"/>
<path d="M970 640 l0 -120 130 0 130 0 0 120 0 120 -130 0 -130 0 0 -120z
m250 0 l0 -110 -120 0 -120 0 0 110 0 110 120 0 120 0 0 -110z"/>
<path d="M1390 640 l0 -120 130 0 130 0 0 120 0 120 -130 0 -130 0 0 -120z
m250 0 l0 -110 -120 0 -120 0 0 110 0 110 120 0 120 0 0 -110z"/>
<path d="M1790 640 l0 -120 130 0 130 0 0 120 0 120 -130 0 -130 0 0 -120z
m250 0 l0 -110 -120 0 -120 0 0 110 0 110 120 0 120 0 0 -110z"/>
<path d="M2700 620 l0 -120 130 0 130 0 0 120 0 120 -130 0 -130 0 0 -120z
m250 0 l0 -110 -120 0 -120 0 0 110 0 110 120 0 120 0 0 -110z"/>
<path d="M3120 620 l0 -120 130 0 130 0 0 120 0 120 -130 0 -130 0 0 -120z
m250 0 l0 -110 -120 0 -120 0 0 110 0 110 120 0 120 0 0 -110z"/>
<path d="M3520 620 l0 -120 130 0 130 0 0 120 0 120 -130 0 -130 0 0 -120z
m250 0 l0 -110 -120 0 -120 0 0 110 0 110 120 0 120 0 0 -110z"/>
<path d="M2740 270 l0 -70 510 0 510 0 0 70 0 70 -510 0 -510 0 0 -70z m1010
0 l0 -60 -500 0 -500 0 0 60 0 60 500 0 500 0 0 -60z"/>
<path d="M1000 260 l0 -70 510 0 510 0 0 70 0 70 -510 0 -510 0 0 -70z m1010
0 l0 -60 -500 0 -500 0 0 60 0 60 500 0 500 0 0 -60z"/>
<path d="M2840 5595 l0 -345 250 0 250 0 0 345 0 345 -250 0 -250 0 0 -345z
m490 0 l0 -335 -240 0 -240 0 0 335 0 335 240 0 240 0 0 -335z"/>
</g>
</svg>
