<?xml version="1.0" standalone="no"?>
<!DOCTYPE svg PUBLIC "-//W3C//DTD SVG 20010904//EN"
 "http://www.w3.org/TR/2001/REC-SVG-20010904/DTD/svg10.dtd">
<svg version="1.0" xmlns="http://www.w3.org/2000/svg"
 width="465.000000pt" height="655.000000pt" viewBox="0 0 465.000000 655.000000"
 preserveAspectRatio="xMidYMid meet">

<g transform="translate(0.000000,655.000000) scale(0.100000,-0.100000)"
fill="#000000" stroke="none">
<path d="M1014 6261 c-47 -22 -80 -59 -94 -110 -8 -25 -10 -951 -8 -2958 l3
-2921 30 -38 c17 -20 46 -45 65 -55 33 -18 86 -19 1283 -19 1100 0 1252 2
1284 15 48 20 71 41 94 87 18 36 19 99 19 2258 l0 2220 375 0 c293 0 375 3
375 13 0 11 -702 408 -736 415 -12 3 -14 76 -14 485 0 446 -2 485 -19 522 -22
48 -44 69 -94 90 -32 13 -183 15 -1279 15 -1188 0 -1245 -1 -1284 -19z m2570
-34 c45 -25 76 -77 76 -124 l0 -33 -390 0 -390 0 0 -470 0 -470 390 0 390 0 0
-2412 c0 -2278 -1 -2415 -18 -2447 -9 -19 -30 -44 -45 -55 -28 -21 -30 -21
-1297 -21 -1267 0 -1269 0 -1297 21 -15 11 -36 36 -46 55 -16 32 -17 189 -15
2959 l3 2925 22 31 c49 68 -44 64 1333 64 l1245 0 39 -23z m-294 -627 l0 -440
-190 0 -190 0 0 440 0 440 190 0 190 0 0 -440z m370 0 l0 -440 -160 0 -160 0
0 440 0 440 160 0 160 0 0 -440z m410 -665 c157 -87 287 -159 289 -161 2 -2
-140 -4 -317 -4 l-322 0 0 181 0 181 33 -20 c17 -11 160 -90 317 -177z"/>
<path d="M1070 5435 l0 -195 250 0 250 0 0 195 0 195 -250 0 -250 0 0 -195z
m470 0 l0 -165 -220 0 -220 0 0 165 0 165 220 0 220 0 0 -165z"/>
<path d="M1680 5435 l0 -195 250 0 250 0 0 195 0 195 -250 0 -250 0 0 -195z
m470 0 l0 -165 -220 0 -220 0 0 165 0 165 220 0 220 0 0 -165z"/>
<path d="M1060 4855 l0 -195 250 0 250 0 0 195 0 195 -250 0 -250 0 0 -195z
m470 0 l0 -165 -220 0 -220 0 0 165 0 165 220 0 220 0 0 -165z"/>
<path d="M1670 4855 l0 -195 250 0 250 0 0 195 0 195 -250 0 -250 0 0 -195z
m470 0 l0 -165 -220 0 -220 0 0 165 0 165 220 0 220 0 0 -165z"/>
<path d="M3070 4215 l0 -195 250 0 250 0 0 195 0 195 -250 0 -250 0 0 -195z
m470 0 l0 -165 -220 0 -220 0 0 165 0 165 220 0 220 0 0 -165z"/>
<path d="M1050 4195 l0 -195 250 0 250 0 0 195 0 195 -250 0 -250 0 0 -195z
m470 0 l0 -165 -220 0 -220 0 0 165 0 165 220 0 220 0 0 -165z"/>
<path d="M1660 4195 l0 -195 250 0 250 0 0 195 0 195 -250 0 -250 0 0 -195z
m470 0 l0 -165 -220 0 -220 0 0 165 0 165 220 0 220 0 0 -165z"/>
<path d="M3060 3635 l0 -195 250 0 250 0 0 195 0 195 -250 0 -250 0 0 -195z
m470 0 l0 -165 -220 0 -220 0 0 165 0 165 220 0 220 0 0 -165z"/>
<path d="M1040 3615 l0 -195 250 0 250 0 0 195 0 195 -250 0 -250 0 0 -195z
m470 0 l0 -165 -220 0 -220 0 0 165 0 165 220 0 220 0 0 -165z"/>
<path d="M1650 3615 l0 -195 250 0 250 0 0 195 0 195 -250 0 -250 0 0 -195z
m470 0 l0 -165 -220 0 -220 0 0 165 0 165 220 0 220 0 0 -165z"/>
<path d="M3050 2975 l0 -195 250 0 250 0 0 195 0 195 -250 0 -250 0 0 -195z
m470 0 l0 -165 -220 0 -220 0 0 165 0 165 220 0 220 0 0 -165z"/>
<path d="M1060 2925 l0 -195 250 0 250 0 0 195 0 195 -250 0 -250 0 0 -195z
m470 0 l0 -165 -220 0 -220 0 0 165 0 165 220 0 220 0 0 -165z"/>
<path d="M1670 2925 l0 -195 250 0 250 0 0 195 0 195 -250 0 -250 0 0 -195z
m470 0 l0 -165 -220 0 -220 0 0 165 0 165 220 0 220 0 0 -165z"/>
<path d="M3040 2395 l0 -195 250 0 250 0 0 195 0 195 -250 0 -250 0 0 -195z
m470 0 l0 -165 -220 0 -220 0 0 165 0 165 220 0 220 0 0 -165z"/>
<path d="M1050 2345 l0 -195 250 0 250 0 0 195 0 195 -250 0 -250 0 0 -195z
m470 0 l0 -165 -220 0 -220 0 0 165 0 165 220 0 220 0 0 -165z"/>
<path d="M1660 2345 l0 -195 250 0 250 0 0 195 0 195 -250 0 -250 0 0 -195z
m470 0 l0 -165 -220 0 -220 0 0 165 0 165 220 0 220 0 0 -165z"/>
<path d="M3060 1705 l0 -195 250 0 250 0 0 195 0 195 -250 0 -250 0 0 -195z
m470 0 l0 -165 -220 0 -220 0 0 165 0 165 220 0 220 0 0 -165z"/>
<path d="M1040 1685 l0 -195 250 0 250 0 0 195 0 195 -250 0 -250 0 0 -195z
m470 0 l0 -165 -220 0 -220 0 0 165 0 165 220 0 220 0 0 -165z"/>
<path d="M1650 1685 l0 -195 250 0 250 0 0 195 0 195 -250 0 -250 0 0 -195z
m470 0 l0 -165 -220 0 -220 0 0 165 0 165 220 0 220 0 0 -165z"/>
<path d="M3050 1125 l0 -195 250 0 250 0 0 195 0 195 -250 0 -250 0 0 -195z
m470 0 l0 -165 -220 0 -220 0 0 165 0 165 220 0 220 0 0 -165z"/>
<path d="M1030 1105 l0 -195 250 0 250 0 0 195 0 195 -250 0 -250 0 0 -195z
m470 0 l0 -165 -220 0 -220 0 0 165 0 165 220 0 220 0 0 -165z"/>
<path d="M1640 1105 l0 -195 250 0 250 0 0 195 0 195 -250 0 -250 0 0 -195z
m470 0 l0 -165 -220 0 -220 0 0 165 0 165 220 0 220 0 0 -165z"/>
<path d="M2420 555 l0 -195 250 0 250 0 0 195 0 195 -250 0 -250 0 0 -195z
m470 0 l0 -165 -220 0 -220 0 0 165 0 165 220 0 220 0 0 -165z"/>
<path d="M3030 555 l0 -195 250 0 250 0 0 195 0 195 -250 0 -250 0 0 -195z
m470 0 l0 -165 -220 0 -220 0 0 165 0 165 220 0 220 0 0 -165z"/>
<path d="M1040 535 l0 -195 250 0 250 0 0 195 0 195 -250 0 -250 0 0 -195z
m470 0 l0 -165 -220 0 -220 0 0 165 0 165 220 0 220 0 0 -165z"/>
<path d="M1650 535 l0 -195 250 0 250 0 0 195 0 195 -250 0 -250 0 0 -195z
m470 0 l0 -165 -220 0 -220 0 0 165 0 165 220 0 220 0 0 -165z"/>
</g>
</svg>
