<?xml version="1.0" standalone="no"?>
<!DOCTYPE svg PUBLIC "-//W3C//DTD SVG 20010904//EN"
 "http://www.w3.org/TR/2001/REC-SVG-20010904/DTD/svg10.dtd">
<svg version="1.0" xmlns="http://www.w3.org/2000/svg"
 width="962.000000pt" height="814.000000pt" viewBox="0 0 962.000000 814.000000"
 preserveAspectRatio="xMidYMid meet">

<g transform="translate(0.000000,814.000000) scale(0.100000,-0.100000)"
fill="#000000" stroke="none">
<path d="M3610 7197 c-30 -16 -51 -37 -67 -67 l-23 -43 0 -3317 0 -3317 23
-43 c16 -30 37 -51 67 -67 l43 -23 1223 0 c840 0 1232 3 1251 11 38 14 83 57
99 96 12 27 14 409 14 2382 l0 2350 115 3 115 3 -115 160 -115 159 0 797 c0
539 -3 807 -11 826 -14 38 -57 83 -96 99 -27 12 -239 14 -1256 14 l-1224 0
-43 -23z m2546 -13 c15 -11 37 -33 48 -48 21 -27 21 -40 24 -557 l3 -529 -511
0 -510 0 0 -220 0 -220 510 0 510 0 -2 -2589 -3 -2590 -21 -27 c-11 -15 -33
-37 -48 -48 -27 -21 -33 -21 -1263 -24 -1233 -2 -1236 -2 -1279 18 -31 16 -48
33 -63 64 l-21 42 0 3314 0 3314 21 42 c14 30 32 48 62 63 42 21 43 21 1279
19 1231 -3 1237 -3 1264 -24z m-606 -1354 l0 -210 -165 0 -165 0 0 210 0 210
165 0 165 0 0 -210z m680 0 l0 -210 -335 0 -335 0 0 210 0 210 335 0 335 0 0
-210z m119 -510 c55 -77 101 -143 101 -145 0 -3 -47 -5 -105 -5 l-105 0 0 145
c0 80 2 145 4 145 2 0 49 -63 105 -140z"/>
<path d="M3610 6785 l0 -95 120 0 120 0 0 95 0 95 -120 0 -120 0 0 -95z m230
0 l0 -85 -110 0 -110 0 0 85 0 85 110 0 110 0 0 -85z"/>
<path d="M3950 6785 l0 -95 120 0 120 0 0 95 0 95 -120 0 -120 0 0 -95z m230
0 l0 -85 -110 0 -110 0 0 85 0 85 110 0 110 0 0 -85z"/>
<path d="M4280 6785 l0 -95 120 0 120 0 0 95 0 95 -120 0 -120 0 0 -95z m230
0 l0 -85 -110 0 -110 0 0 85 0 85 110 0 110 0 0 -85z"/>
<path d="M5200 6785 l0 -95 120 0 120 0 0 95 0 95 -120 0 -120 0 0 -95z m230
0 l0 -85 -110 0 -110 0 0 85 0 85 110 0 110 0 0 -85z"/>
<path d="M5540 6785 l0 -95 120 0 120 0 0 95 0 95 -120 0 -120 0 0 -95z m230
0 l0 -85 -110 0 -110 0 0 85 0 85 110 0 110 0 0 -85z"/>
<path d="M5880 6785 l0 -95 120 0 120 0 0 95 0 95 -120 0 -120 0 0 -95z m230
0 l0 -85 -110 0 -110 0 0 85 0 85 110 0 110 0 0 -85z"/>
<path d="M3610 6525 l0 -95 120 0 120 0 0 95 0 95 -120 0 -120 0 0 -95z m230
0 l0 -85 -110 0 -110 0 0 85 0 85 110 0 110 0 0 -85z"/>
<path d="M3950 6525 l0 -95 120 0 120 0 0 95 0 95 -120 0 -120 0 0 -95z m230
0 l0 -85 -110 0 -110 0 0 85 0 85 110 0 110 0 0 -85z"/>
<path d="M4280 6525 l0 -95 120 0 120 0 0 95 0 95 -120 0 -120 0 0 -95z m230
0 l0 -85 -110 0 -110 0 0 85 0 85 110 0 110 0 0 -85z"/>
<path d="M5200 6525 l0 -95 120 0 120 0 0 95 0 95 -120 0 -120 0 0 -95z m230
0 l0 -85 -110 0 -110 0 0 85 0 85 110 0 110 0 0 -85z"/>
<path d="M5540 6525 l0 -95 120 0 120 0 0 95 0 95 -120 0 -120 0 0 -95z m230
0 l0 -85 -110 0 -110 0 0 85 0 85 110 0 110 0 0 -85z"/>
<path d="M5880 6525 l0 -95 120 0 120 0 0 95 0 95 -120 0 -120 0 0 -95z m230
0 l0 -85 -110 0 -110 0 0 85 0 85 110 0 110 0 0 -85z"/>
<path d="M3610 6225 l0 -95 120 0 120 0 0 95 0 95 -120 0 -120 0 0 -95z m230
0 l0 -85 -110 0 -110 0 0 85 0 85 110 0 110 0 0 -85z"/>
<path d="M3950 6225 l0 -95 120 0 120 0 0 95 0 95 -120 0 -120 0 0 -95z m230
0 l0 -85 -110 0 -110 0 0 85 0 85 110 0 110 0 0 -85z"/>
<path d="M4280 6225 l0 -95 120 0 120 0 0 95 0 95 -120 0 -120 0 0 -95z m230
0 l0 -85 -110 0 -110 0 0 85 0 85 110 0 110 0 0 -85z"/>
<path d="M5200 6225 l0 -95 120 0 120 0 0 95 0 95 -120 0 -120 0 0 -95z m230
0 l0 -85 -110 0 -110 0 0 85 0 85 110 0 110 0 0 -85z"/>
<path d="M5540 6225 l0 -95 120 0 120 0 0 95 0 95 -120 0 -120 0 0 -95z m230
0 l0 -85 -110 0 -110 0 0 85 0 85 110 0 110 0 0 -85z"/>
<path d="M5880 6225 l0 -95 120 0 120 0 0 95 0 95 -120 0 -120 0 0 -95z m230
0 l0 -85 -110 0 -110 0 0 85 0 85 110 0 110 0 0 -85z"/>
<path d="M3610 5965 l0 -95 120 0 120 0 0 95 0 95 -120 0 -120 0 0 -95z m230
0 l0 -85 -110 0 -110 0 0 85 0 85 110 0 110 0 0 -85z"/>
<path d="M3950 5965 l0 -95 120 0 120 0 0 95 0 95 -120 0 -120 0 0 -95z m230
0 l0 -85 -110 0 -110 0 0 85 0 85 110 0 110 0 0 -85z"/>
<path d="M4280 5965 l0 -95 120 0 120 0 0 95 0 95 -120 0 -120 0 0 -95z m230
0 l0 -85 -110 0 -110 0 0 85 0 85 110 0 110 0 0 -85z"/>
<path d="M3610 5605 l0 -95 120 0 120 0 0 95 0 95 -120 0 -120 0 0 -95z m230
0 l0 -85 -110 0 -110 0 0 85 0 85 110 0 110 0 0 -85z"/>
<path d="M3950 5605 l0 -95 120 0 120 0 0 95 0 95 -120 0 -120 0 0 -95z m230
0 l0 -85 -110 0 -110 0 0 85 0 85 110 0 110 0 0 -85z"/>
<path d="M4280 5605 l0 -95 120 0 120 0 0 95 0 95 -120 0 -120 0 0 -95z m230
0 l0 -85 -110 0 -110 0 0 85 0 85 110 0 110 0 0 -85z"/>
<path d="M3610 5345 l0 -95 120 0 120 0 0 95 0 95 -120 0 -120 0 0 -95z m230
0 l0 -85 -110 0 -110 0 0 85 0 85 110 0 110 0 0 -85z"/>
<path d="M3950 5345 l0 -95 120 0 120 0 0 95 0 95 -120 0 -120 0 0 -95z m230
0 l0 -85 -110 0 -110 0 0 85 0 85 110 0 110 0 0 -85z"/>
<path d="M4280 5345 l0 -95 120 0 120 0 0 95 0 95 -120 0 -120 0 0 -95z m230
0 l0 -85 -110 0 -110 0 0 85 0 85 110 0 110 0 0 -85z"/>
<path d="M3610 5045 l0 -95 120 0 120 0 0 95 0 95 -120 0 -120 0 0 -95z m230
0 l0 -85 -110 0 -110 0 0 85 0 85 110 0 110 0 0 -85z"/>
<path d="M3950 5045 l0 -95 120 0 120 0 0 95 0 95 -120 0 -120 0 0 -95z m230
0 l0 -85 -110 0 -110 0 0 85 0 85 110 0 110 0 0 -85z"/>
<path d="M4280 5045 l0 -95 120 0 120 0 0 95 0 95 -120 0 -120 0 0 -95z m230
0 l0 -85 -110 0 -110 0 0 85 0 85 110 0 110 0 0 -85z"/>
<path d="M5200 5045 l0 -95 120 0 120 0 0 95 0 95 -120 0 -120 0 0 -95z m230
0 l0 -85 -110 0 -110 0 0 85 0 85 110 0 110 0 0 -85z"/>
<path d="M5540 5045 l0 -95 120 0 120 0 0 95 0 95 -120 0 -120 0 0 -95z m230
0 l0 -85 -110 0 -110 0 0 85 0 85 110 0 110 0 0 -85z"/>
<path d="M5880 5045 l0 -95 120 0 120 0 0 95 0 95 -120 0 -120 0 0 -95z m230
0 l0 -85 -110 0 -110 0 0 85 0 85 110 0 110 0 0 -85z"/>
<path d="M3610 4785 l0 -95 120 0 120 0 0 95 0 95 -120 0 -120 0 0 -95z m230
0 l0 -85 -110 0 -110 0 0 85 0 85 110 0 110 0 0 -85z"/>
<path d="M3950 4785 l0 -95 120 0 120 0 0 95 0 95 -120 0 -120 0 0 -95z m230
0 l0 -85 -110 0 -110 0 0 85 0 85 110 0 110 0 0 -85z"/>
<path d="M4280 4785 l0 -95 120 0 120 0 0 95 0 95 -120 0 -120 0 0 -95z m230
0 l0 -85 -110 0 -110 0 0 85 0 85 110 0 110 0 0 -85z"/>
<path d="M5200 4785 l0 -95 120 0 120 0 0 95 0 95 -120 0 -120 0 0 -95z m230
0 l0 -85 -110 0 -110 0 0 85 0 85 110 0 110 0 0 -85z"/>
<path d="M5540 4785 l0 -95 120 0 120 0 0 95 0 95 -120 0 -120 0 0 -95z m230
0 l0 -85 -110 0 -110 0 0 85 0 85 110 0 110 0 0 -85z"/>
<path d="M5880 4785 l0 -95 120 0 120 0 0 95 0 95 -120 0 -120 0 0 -95z m230
0 l0 -85 -110 0 -110 0 0 85 0 85 110 0 110 0 0 -85z"/>
<path d="M3610 4425 l0 -95 120 0 120 0 0 95 0 95 -120 0 -120 0 0 -95z m230
0 l0 -85 -110 0 -110 0 0 85 0 85 110 0 110 0 0 -85z"/>
<path d="M3950 4425 l0 -95 120 0 120 0 0 95 0 95 -120 0 -120 0 0 -95z m230
0 l0 -85 -110 0 -110 0 0 85 0 85 110 0 110 0 0 -85z"/>
<path d="M4280 4425 l0 -95 120 0 120 0 0 95 0 95 -120 0 -120 0 0 -95z m230
0 l0 -85 -110 0 -110 0 0 85 0 85 110 0 110 0 0 -85z"/>
<path d="M5200 4425 l0 -95 120 0 120 0 0 95 0 95 -120 0 -120 0 0 -95z m230
0 l0 -85 -110 0 -110 0 0 85 0 85 110 0 110 0 0 -85z"/>
<path d="M5540 4425 l0 -95 120 0 120 0 0 95 0 95 -120 0 -120 0 0 -95z m230
0 l0 -85 -110 0 -110 0 0 85 0 85 110 0 110 0 0 -85z"/>
<path d="M5880 4425 l0 -95 120 0 120 0 0 95 0 95 -120 0 -120 0 0 -95z m230
0 l0 -85 -110 0 -110 0 0 85 0 85 110 0 110 0 0 -85z"/>
<path d="M3610 4165 l0 -95 120 0 120 0 0 95 0 95 -120 0 -120 0 0 -95z m230
0 l0 -85 -110 0 -110 0 0 85 0 85 110 0 110 0 0 -85z"/>
<path d="M3950 4165 l0 -95 120 0 120 0 0 95 0 95 -120 0 -120 0 0 -95z m230
0 l0 -85 -110 0 -110 0 0 85 0 85 110 0 110 0 0 -85z"/>
<path d="M4280 4165 l0 -95 120 0 120 0 0 95 0 95 -120 0 -120 0 0 -95z m230
0 l0 -85 -110 0 -110 0 0 85 0 85 110 0 110 0 0 -85z"/>
<path d="M5200 4165 l0 -95 120 0 120 0 0 95 0 95 -120 0 -120 0 0 -95z m230
0 l0 -85 -110 0 -110 0 0 85 0 85 110 0 110 0 0 -85z"/>
<path d="M5540 4165 l0 -95 120 0 120 0 0 95 0 95 -120 0 -120 0 0 -95z m230
0 l0 -85 -110 0 -110 0 0 85 0 85 110 0 110 0 0 -85z"/>
<path d="M5880 4165 l0 -95 120 0 120 0 0 95 0 95 -120 0 -120 0 0 -95z m230
0 l0 -85 -110 0 -110 0 0 85 0 85 110 0 110 0 0 -85z"/>
<path d="M3610 3865 l0 -95 120 0 120 0 0 95 0 95 -120 0 -120 0 0 -95z m230
0 l0 -85 -110 0 -110 0 0 85 0 85 110 0 110 0 0 -85z"/>
<path d="M3950 3865 l0 -95 120 0 120 0 0 95 0 95 -120 0 -120 0 0 -95z m230
0 l0 -85 -110 0 -110 0 0 85 0 85 110 0 110 0 0 -85z"/>
<path d="M4280 3865 l0 -95 120 0 120 0 0 95 0 95 -120 0 -120 0 0 -95z m230
0 l0 -85 -110 0 -110 0 0 85 0 85 110 0 110 0 0 -85z"/>
<path d="M5200 3865 l0 -95 120 0 120 0 0 95 0 95 -120 0 -120 0 0 -95z m230
0 l0 -85 -110 0 -110 0 0 85 0 85 110 0 110 0 0 -85z"/>
<path d="M5540 3865 l0 -95 120 0 120 0 0 95 0 95 -120 0 -120 0 0 -95z m230
0 l0 -85 -110 0 -110 0 0 85 0 85 110 0 110 0 0 -85z"/>
<path d="M5880 3865 l0 -95 120 0 120 0 0 95 0 95 -120 0 -120 0 0 -95z m230
0 l0 -85 -110 0 -110 0 0 85 0 85 110 0 110 0 0 -85z"/>
<path d="M3610 3605 l0 -95 120 0 120 0 0 95 0 95 -120 0 -120 0 0 -95z m230
0 l0 -85 -110 0 -110 0 0 85 0 85 110 0 110 0 0 -85z"/>
<path d="M3950 3605 l0 -95 120 0 120 0 0 95 0 95 -120 0 -120 0 0 -95z m230
0 l0 -85 -110 0 -110 0 0 85 0 85 110 0 110 0 0 -85z"/>
<path d="M4280 3605 l0 -95 120 0 120 0 0 95 0 95 -120 0 -120 0 0 -95z m230
0 l0 -85 -110 0 -110 0 0 85 0 85 110 0 110 0 0 -85z"/>
<path d="M5200 3605 l0 -95 120 0 120 0 0 95 0 95 -120 0 -120 0 0 -95z m230
0 l0 -85 -110 0 -110 0 0 85 0 85 110 0 110 0 0 -85z"/>
<path d="M5540 3605 l0 -95 120 0 120 0 0 95 0 95 -120 0 -120 0 0 -95z m230
0 l0 -85 -110 0 -110 0 0 85 0 85 110 0 110 0 0 -85z"/>
<path d="M5880 3605 l0 -95 120 0 120 0 0 95 0 95 -120 0 -120 0 0 -95z m230
0 l0 -85 -110 0 -110 0 0 85 0 85 110 0 110 0 0 -85z"/>
<path d="M3600 3245 l0 -95 120 0 120 0 0 95 0 95 -120 0 -120 0 0 -95z m230
0 l0 -85 -110 0 -110 0 0 85 0 85 110 0 110 0 0 -85z"/>
<path d="M3940 3245 l0 -95 120 0 120 0 0 95 0 95 -120 0 -120 0 0 -95z m230
0 l0 -85 -110 0 -110 0 0 85 0 85 110 0 110 0 0 -85z"/>
<path d="M4270 3245 l0 -95 120 0 120 0 0 95 0 95 -120 0 -120 0 0 -95z m230
0 l0 -85 -110 0 -110 0 0 85 0 85 110 0 110 0 0 -85z"/>
<path d="M5190 3245 l0 -95 120 0 120 0 0 95 0 95 -120 0 -120 0 0 -95z m230
0 l0 -85 -110 0 -110 0 0 85 0 85 110 0 110 0 0 -85z"/>
<path d="M5530 3245 l0 -95 120 0 120 0 0 95 0 95 -120 0 -120 0 0 -95z m230
0 l0 -85 -110 0 -110 0 0 85 0 85 110 0 110 0 0 -85z"/>
<path d="M5870 3245 l0 -95 120 0 120 0 0 95 0 95 -120 0 -120 0 0 -95z m230
0 l0 -85 -110 0 -110 0 0 85 0 85 110 0 110 0 0 -85z"/>
<path d="M3600 2985 l0 -95 120 0 120 0 0 95 0 95 -120 0 -120 0 0 -95z m230
0 l0 -85 -110 0 -110 0 0 85 0 85 110 0 110 0 0 -85z"/>
<path d="M3940 2985 l0 -95 120 0 120 0 0 95 0 95 -120 0 -120 0 0 -95z m230
0 l0 -85 -110 0 -110 0 0 85 0 85 110 0 110 0 0 -85z"/>
<path d="M4270 2985 l0 -95 120 0 120 0 0 95 0 95 -120 0 -120 0 0 -95z m230
0 l0 -85 -110 0 -110 0 0 85 0 85 110 0 110 0 0 -85z"/>
<path d="M5190 2985 l0 -95 120 0 120 0 0 95 0 95 -120 0 -120 0 0 -95z m230
0 l0 -85 -110 0 -110 0 0 85 0 85 110 0 110 0 0 -85z"/>
<path d="M5530 2985 l0 -95 120 0 120 0 0 95 0 95 -120 0 -120 0 0 -95z m230
0 l0 -85 -110 0 -110 0 0 85 0 85 110 0 110 0 0 -85z"/>
<path d="M5870 2985 l0 -95 120 0 120 0 0 95 0 95 -120 0 -120 0 0 -95z m230
0 l0 -85 -110 0 -110 0 0 85 0 85 110 0 110 0 0 -85z"/>
<path d="M3600 2685 l0 -95 120 0 120 0 0 95 0 95 -120 0 -120 0 0 -95z m230
0 l0 -85 -110 0 -110 0 0 85 0 85 110 0 110 0 0 -85z"/>
<path d="M3940 2685 l0 -95 120 0 120 0 0 95 0 95 -120 0 -120 0 0 -95z m230
0 l0 -85 -110 0 -110 0 0 85 0 85 110 0 110 0 0 -85z"/>
<path d="M4270 2685 l0 -95 120 0 120 0 0 95 0 95 -120 0 -120 0 0 -95z m230
0 l0 -85 -110 0 -110 0 0 85 0 85 110 0 110 0 0 -85z"/>
<path d="M5190 2685 l0 -95 120 0 120 0 0 95 0 95 -120 0 -120 0 0 -95z m230
0 l0 -85 -110 0 -110 0 0 85 0 85 110 0 110 0 0 -85z"/>
<path d="M5530 2685 l0 -95 120 0 120 0 0 95 0 95 -120 0 -120 0 0 -95z m230
0 l0 -85 -110 0 -110 0 0 85 0 85 110 0 110 0 0 -85z"/>
<path d="M5870 2685 l0 -95 120 0 120 0 0 95 0 95 -120 0 -120 0 0 -95z m230
0 l0 -85 -110 0 -110 0 0 85 0 85 110 0 110 0 0 -85z"/>
<path d="M3600 2425 l0 -95 120 0 120 0 0 95 0 95 -120 0 -120 0 0 -95z m230
0 l0 -85 -110 0 -110 0 0 85 0 85 110 0 110 0 0 -85z"/>
<path d="M3940 2425 l0 -95 120 0 120 0 0 95 0 95 -120 0 -120 0 0 -95z m230
0 l0 -85 -110 0 -110 0 0 85 0 85 110 0 110 0 0 -85z"/>
<path d="M4270 2425 l0 -95 120 0 120 0 0 95 0 95 -120 0 -120 0 0 -95z m230
0 l0 -85 -110 0 -110 0 0 85 0 85 110 0 110 0 0 -85z"/>
<path d="M5190 2425 l0 -95 120 0 120 0 0 95 0 95 -120 0 -120 0 0 -95z m230
0 l0 -85 -110 0 -110 0 0 85 0 85 110 0 110 0 0 -85z"/>
<path d="M5530 2425 l0 -95 120 0 120 0 0 95 0 95 -120 0 -120 0 0 -95z m230
0 l0 -85 -110 0 -110 0 0 85 0 85 110 0 110 0 0 -85z"/>
<path d="M5870 2425 l0 -95 120 0 120 0 0 95 0 95 -120 0 -120 0 0 -95z m230
0 l0 -85 -110 0 -110 0 0 85 0 85 110 0 110 0 0 -85z"/>
<path d="M3600 2065 l0 -95 120 0 120 0 0 95 0 95 -120 0 -120 0 0 -95z m230
0 l0 -85 -110 0 -110 0 0 85 0 85 110 0 110 0 0 -85z"/>
<path d="M3940 2065 l0 -95 120 0 120 0 0 95 0 95 -120 0 -120 0 0 -95z m230
0 l0 -85 -110 0 -110 0 0 85 0 85 110 0 110 0 0 -85z"/>
<path d="M4270 2065 l0 -95 120 0 120 0 0 95 0 95 -120 0 -120 0 0 -95z m230
0 l0 -85 -110 0 -110 0 0 85 0 85 110 0 110 0 0 -85z"/>
<path d="M5190 2065 l0 -95 120 0 120 0 0 95 0 95 -120 0 -120 0 0 -95z m230
0 l0 -85 -110 0 -110 0 0 85 0 85 110 0 110 0 0 -85z"/>
<path d="M5530 2065 l0 -95 120 0 120 0 0 95 0 95 -120 0 -120 0 0 -95z m230
0 l0 -85 -110 0 -110 0 0 85 0 85 110 0 110 0 0 -85z"/>
<path d="M5870 2065 l0 -95 120 0 120 0 0 95 0 95 -120 0 -120 0 0 -95z m230
0 l0 -85 -110 0 -110 0 0 85 0 85 110 0 110 0 0 -85z"/>
<path d="M3600 1805 l0 -95 120 0 120 0 0 95 0 95 -120 0 -120 0 0 -95z m230
0 l0 -85 -110 0 -110 0 0 85 0 85 110 0 110 0 0 -85z"/>
<path d="M3940 1805 l0 -95 120 0 120 0 0 95 0 95 -120 0 -120 0 0 -95z m230
0 l0 -85 -110 0 -110 0 0 85 0 85 110 0 110 0 0 -85z"/>
<path d="M4270 1805 l0 -95 120 0 120 0 0 95 0 95 -120 0 -120 0 0 -95z m230
0 l0 -85 -110 0 -110 0 0 85 0 85 110 0 110 0 0 -85z"/>
<path d="M5190 1805 l0 -95 120 0 120 0 0 95 0 95 -120 0 -120 0 0 -95z m230
0 l0 -85 -110 0 -110 0 0 85 0 85 110 0 110 0 0 -85z"/>
<path d="M5530 1805 l0 -95 120 0 120 0 0 95 0 95 -120 0 -120 0 0 -95z m230
0 l0 -85 -110 0 -110 0 0 85 0 85 110 0 110 0 0 -85z"/>
<path d="M5870 1805 l0 -95 120 0 120 0 0 95 0 95 -120 0 -120 0 0 -95z m230
0 l0 -85 -110 0 -110 0 0 85 0 85 110 0 110 0 0 -85z"/>
<path d="M3600 1505 l0 -95 120 0 120 0 0 95 0 95 -120 0 -120 0 0 -95z m230
0 l0 -85 -110 0 -110 0 0 85 0 85 110 0 110 0 0 -85z"/>
<path d="M3940 1505 l0 -95 120 0 120 0 0 95 0 95 -120 0 -120 0 0 -95z m230
0 l0 -85 -110 0 -110 0 0 85 0 85 110 0 110 0 0 -85z"/>
<path d="M4270 1505 l0 -95 120 0 120 0 0 95 0 95 -120 0 -120 0 0 -95z m230
0 l0 -85 -110 0 -110 0 0 85 0 85 110 0 110 0 0 -85z"/>
<path d="M5190 1505 l0 -95 120 0 120 0 0 95 0 95 -120 0 -120 0 0 -95z m230
0 l0 -85 -110 0 -110 0 0 85 0 85 110 0 110 0 0 -85z"/>
<path d="M5530 1505 l0 -95 120 0 120 0 0 95 0 95 -120 0 -120 0 0 -95z m230
0 l0 -85 -110 0 -110 0 0 85 0 85 110 0 110 0 0 -85z"/>
<path d="M5870 1505 l0 -95 120 0 120 0 0 95 0 95 -120 0 -120 0 0 -95z m230
0 l0 -85 -110 0 -110 0 0 85 0 85 110 0 110 0 0 -85z"/>
<path d="M3600 1245 l0 -95 120 0 120 0 0 95 0 95 -120 0 -120 0 0 -95z m230
0 l0 -85 -110 0 -110 0 0 85 0 85 110 0 110 0 0 -85z"/>
<path d="M3940 1245 l0 -95 120 0 120 0 0 95 0 95 -120 0 -120 0 0 -95z m230
0 l0 -85 -110 0 -110 0 0 85 0 85 110 0 110 0 0 -85z"/>
<path d="M4270 1245 l0 -95 120 0 120 0 0 95 0 95 -120 0 -120 0 0 -95z m230
0 l0 -85 -110 0 -110 0 0 85 0 85 110 0 110 0 0 -85z"/>
<path d="M5190 1245 l0 -95 120 0 120 0 0 95 0 95 -120 0 -120 0 0 -95z m230
0 l0 -85 -110 0 -110 0 0 85 0 85 110 0 110 0 0 -85z"/>
<path d="M5530 1245 l0 -95 120 0 120 0 0 95 0 95 -120 0 -120 0 0 -95z m230
0 l0 -85 -110 0 -110 0 0 85 0 85 110 0 110 0 0 -85z"/>
<path d="M5870 1245 l0 -95 120 0 120 0 0 95 0 95 -120 0 -120 0 0 -95z m230
0 l0 -85 -110 0 -110 0 0 85 0 85 110 0 110 0 0 -85z"/>
<path d="M3600 955 l0 -95 120 0 120 0 0 95 0 95 -120 0 -120 0 0 -95z m230 0
l0 -85 -110 0 -110 0 0 85 0 85 110 0 110 0 0 -85z"/>
<path d="M3940 955 l0 -95 120 0 120 0 0 95 0 95 -120 0 -120 0 0 -95z m230 0
l0 -85 -110 0 -110 0 0 85 0 85 110 0 110 0 0 -85z"/>
<path d="M4270 955 l0 -95 120 0 120 0 0 95 0 95 -120 0 -120 0 0 -95z m230 0
l0 -85 -110 0 -110 0 0 85 0 85 110 0 110 0 0 -85z"/>
<path d="M5190 955 l0 -95 120 0 120 0 0 95 0 95 -120 0 -120 0 0 -95z m230 0
l0 -85 -110 0 -110 0 0 85 0 85 110 0 110 0 0 -85z"/>
<path d="M5530 955 l0 -95 120 0 120 0 0 95 0 95 -120 0 -120 0 0 -95z m230 0
l0 -85 -110 0 -110 0 0 85 0 85 110 0 110 0 0 -85z"/>
<path d="M5870 955 l0 -95 120 0 120 0 0 95 0 95 -120 0 -120 0 0 -95z m230 0
l0 -85 -110 0 -110 0 0 85 0 85 110 0 110 0 0 -85z"/>
<path d="M3600 695 l0 -95 120 0 120 0 0 95 0 95 -120 0 -120 0 0 -95z m230 0
l0 -85 -110 0 -110 0 0 85 0 85 110 0 110 0 0 -85z"/>
<path d="M3940 695 l0 -95 120 0 120 0 0 95 0 95 -120 0 -120 0 0 -95z m230 0
l0 -85 -110 0 -110 0 0 85 0 85 110 0 110 0 0 -85z"/>
<path d="M4270 695 l0 -95 120 0 120 0 0 95 0 95 -120 0 -120 0 0 -95z m230 0
l0 -85 -110 0 -110 0 0 85 0 85 110 0 110 0 0 -85z"/>
<path d="M5190 695 l0 -95 120 0 120 0 0 95 0 95 -120 0 -120 0 0 -95z m230 0
l0 -85 -110 0 -110 0 0 85 0 85 110 0 110 0 0 -85z"/>
<path d="M5530 695 l0 -95 120 0 120 0 0 95 0 95 -120 0 -120 0 0 -95z m230 0
l0 -85 -110 0 -110 0 0 85 0 85 110 0 110 0 0 -85z"/>
<path d="M5870 695 l0 -95 120 0 120 0 0 95 0 95 -120 0 -120 0 0 -95z m230 0
l0 -85 -110 0 -110 0 0 85 0 85 110 0 110 0 0 -85z"/>
</g>
</svg>
